<svg width="488" height="139" viewBox="0 0 488 139" fill="none" xmlns="http://www.w3.org/2000/svg">
<rect x="97" y="3" width="294" height="99" rx="49.5" fill="url(#paint0_linear_814_5)"/>
<rect y="40" width="488" height="99" rx="49.5" fill="#F2F2F2"/>
<path d="M15.3962 92.728H10.7402L9.94019 95H8.03619L12.0202 83.864H14.1322L18.1162 95H16.1962L15.3962 92.728ZM14.8842 91.24L13.0762 86.072L11.2522 91.24H14.8842ZM14.7242 81.496L11.1882 83.24V81.896L14.7242 79.944V81.496ZM19.2404 90.584C19.2404 89.6773 19.4218 88.8827 19.7844 88.2C20.1578 87.5067 20.6698 86.9733 21.3204 86.6C21.9711 86.2267 22.7178 86.04 23.5604 86.04C24.6271 86.04 25.5071 86.296 26.2004 86.808C26.9044 87.3093 27.3791 88.0293 27.6244 88.968H25.6564C25.4964 88.5307 25.2404 88.1893 24.8884 87.944C24.5364 87.6987 24.0938 87.576 23.5604 87.576C22.8138 87.576 22.2164 87.8427 21.7684 88.376C21.3311 88.8987 21.1124 89.6347 21.1124 90.584C21.1124 91.5333 21.3311 92.2747 21.7684 92.808C22.2164 93.3413 22.8138 93.608 23.5604 93.608C24.6164 93.608 25.3151 93.144 25.6564 92.216H27.6244C27.3684 93.112 26.8884 93.8267 26.1844 94.36C25.4804 94.8827 24.6058 95.144 23.5604 95.144C22.7178 95.144 21.9711 94.9573 21.3204 94.584C20.6698 94.2 20.1578 93.6667 19.7844 92.984C19.4218 92.2907 19.2404 91.4907 19.2404 90.584ZM30.3702 85.016C30.0395 85.016 29.7622 84.904 29.5382 84.68C29.3142 84.456 29.2022 84.1787 29.2022 83.848C29.2022 83.5173 29.3142 83.24 29.5382 83.016C29.7622 82.792 30.0395 82.68 30.3702 82.68C30.6902 82.68 30.9622 82.792 31.1862 83.016C31.4102 83.24 31.5222 83.5173 31.5222 83.848C31.5222 84.1787 31.4102 84.456 31.1862 84.68C30.9622 84.904 30.6902 85.016 30.3702 85.016ZM31.2662 86.184V95H29.4422V86.184H31.2662ZM33.0529 90.552C33.0529 89.6667 33.2343 88.8827 33.5969 88.2C33.9703 87.5173 34.4716 86.9893 35.1009 86.616C35.7409 86.232 36.4503 86.04 37.2289 86.04C37.8049 86.04 38.3703 86.168 38.9249 86.424C39.4903 86.6693 39.9383 87 40.2689 87.416V83.16H42.1089V95H40.2689V93.672C39.9703 94.0987 39.5543 94.4507 39.0209 94.728C38.4983 95.0053 37.8956 95.144 37.2129 95.144C36.4449 95.144 35.7409 94.952 35.1009 94.568C34.4716 94.1733 33.9703 93.6293 33.5969 92.936C33.2343 92.232 33.0529 91.4373 33.0529 90.552ZM40.2689 90.584C40.2689 89.976 40.1409 89.448 39.8849 89C39.6396 88.552 39.3143 88.2107 38.9089 87.976C38.5036 87.7413 38.0663 87.624 37.5969 87.624C37.1276 87.624 36.6903 87.7413 36.2849 87.976C35.8796 88.2 35.5489 88.536 35.2929 88.984C35.0476 89.4213 34.9249 89.944 34.9249 90.552C34.9249 91.16 35.0476 91.6933 35.2929 92.152C35.5489 92.6107 35.8796 92.9627 36.2849 93.208C36.7009 93.4427 37.1383 93.56 37.5969 93.56C38.0663 93.56 38.5036 93.4427 38.9089 93.208C39.3143 92.9733 39.6396 92.632 39.8849 92.184C40.1409 91.7253 40.2689 91.192 40.2689 90.584ZM48.3287 95.144C47.4967 95.144 46.7447 94.9573 46.0727 94.584C45.4007 94.2 44.8727 93.6667 44.4887 92.984C44.1047 92.2907 43.9127 91.4907 43.9127 90.584C43.9127 89.688 44.11 88.8933 44.5047 88.2C44.8994 87.5067 45.438 86.9733 46.1207 86.6C46.8034 86.2267 47.566 86.04 48.4087 86.04C49.2514 86.04 50.014 86.2267 50.6967 86.6C51.3794 86.9733 51.918 87.5067 52.3127 88.2C52.7074 88.8933 52.9047 89.688 52.9047 90.584C52.9047 91.48 52.702 92.2747 52.2967 92.968C51.8914 93.6613 51.3367 94.2 50.6327 94.584C49.9394 94.9573 49.1714 95.144 48.3287 95.144ZM48.3287 93.56C48.798 93.56 49.2354 93.448 49.6407 93.224C50.0567 93 50.3927 92.664 50.6487 92.216C50.9047 91.768 51.0327 91.224 51.0327 90.584C51.0327 89.944 50.91 89.4053 50.6647 88.968C50.4194 88.52 50.094 88.184 49.6887 87.96C49.2834 87.736 48.846 87.624 48.3767 87.624C47.9074 87.624 47.47 87.736 47.0647 87.96C46.67 88.184 46.3554 88.52 46.1207 88.968C45.886 89.4053 45.7687 89.944 45.7687 90.584C45.7687 91.5333 46.0087 92.2693 46.4887 92.792C46.9794 93.304 47.5927 93.56 48.3287 93.56Z" fill="black"/>
<path d="M431.41 89.288C432.007 89.3947 432.514 89.7093 432.93 90.232C433.346 90.7547 433.554 91.3467 433.554 92.008C433.554 92.5733 433.404 93.0853 433.106 93.544C432.818 93.992 432.396 94.3493 431.842 94.616C431.287 94.872 430.642 95 429.906 95H425.458V83.88H429.698C430.455 83.88 431.106 84.008 431.65 84.264C432.194 84.52 432.604 84.8667 432.882 85.304C433.159 85.7307 433.298 86.2107 433.298 86.744C433.298 87.384 433.127 87.9173 432.786 88.344C432.444 88.7707 431.986 89.0853 431.41 89.288ZM427.282 88.552H429.538C430.135 88.552 430.599 88.4187 430.93 88.152C431.271 87.8747 431.442 87.48 431.442 86.968C431.442 86.4667 431.271 86.0773 430.93 85.8C430.599 85.512 430.135 85.368 429.538 85.368H427.282V88.552ZM429.746 93.512C430.364 93.512 430.85 93.3627 431.202 93.064C431.554 92.7653 431.73 92.3493 431.73 91.816C431.73 91.272 431.543 90.84 431.17 90.52C430.796 90.2 430.3 90.04 429.682 90.04H427.282V93.512H429.746ZM434.928 90.552C434.928 89.6667 435.109 88.8827 435.472 88.2C435.845 87.5173 436.347 86.9893 436.976 86.616C437.616 86.232 438.32 86.04 439.088 86.04C439.781 86.04 440.384 86.1787 440.896 86.456C441.419 86.7227 441.835 87.0587 442.144 87.464V86.184H443.984V95H442.144V93.688C441.835 94.104 441.413 94.4507 440.88 94.728C440.347 95.0053 439.739 95.144 439.056 95.144C438.299 95.144 437.605 94.952 436.976 94.568C436.347 94.1733 435.845 93.6293 435.472 92.936C435.109 92.232 434.928 91.4373 434.928 90.552ZM442.144 90.584C442.144 89.976 442.016 89.448 441.76 89C441.515 88.552 441.189 88.2107 440.784 87.976C440.379 87.7413 439.941 87.624 439.472 87.624C439.003 87.624 438.565 87.7413 438.16 87.976C437.755 88.2 437.424 88.536 437.168 88.984C436.923 89.4213 436.8 89.944 436.8 90.552C436.8 91.16 436.923 91.6933 437.168 92.152C437.424 92.6107 437.755 92.9627 438.16 93.208C438.576 93.4427 439.013 93.56 439.472 93.56C439.941 93.56 440.379 93.4427 440.784 93.208C441.189 92.9733 441.515 92.632 441.76 92.184C442.016 91.7253 442.144 91.192 442.144 90.584ZM441.408 83.816L437.872 85.56V84.216L441.408 82.264V83.816ZM449.58 95.144C448.886 95.144 448.262 95.0213 447.708 94.776C447.164 94.52 446.732 94.1787 446.412 93.752C446.092 93.3147 445.921 92.8293 445.9 92.296H447.788C447.82 92.6693 447.996 92.984 448.316 93.24C448.646 93.4853 449.057 93.608 449.548 93.608C450.06 93.608 450.454 93.512 450.732 93.32C451.02 93.1173 451.164 92.8613 451.164 92.552C451.164 92.2213 451.004 91.976 450.684 91.816C450.374 91.656 449.878 91.48 449.196 91.288C448.534 91.1067 447.996 90.9307 447.58 90.76C447.164 90.5893 446.801 90.328 446.492 89.976C446.193 89.624 446.044 89.16 446.044 88.584C446.044 88.1147 446.182 87.688 446.46 87.304C446.737 86.9093 447.132 86.6 447.644 86.376C448.166 86.152 448.764 86.04 449.436 86.04C450.438 86.04 451.244 86.296 451.852 86.808C452.47 87.3093 452.801 87.9973 452.844 88.872H451.02C450.988 88.4773 450.828 88.1627 450.54 87.928C450.252 87.6933 449.862 87.576 449.372 87.576C448.892 87.576 448.524 87.6667 448.268 87.848C448.012 88.0293 447.884 88.2693 447.884 88.568C447.884 88.8027 447.969 89 448.14 89.16C448.31 89.32 448.518 89.448 448.764 89.544C449.009 89.6293 449.372 89.7413 449.852 89.88C450.492 90.0507 451.014 90.2267 451.42 90.408C451.836 90.5787 452.193 90.8347 452.492 91.176C452.79 91.5173 452.945 91.9707 452.956 92.536C452.956 93.0373 452.817 93.4853 452.54 93.88C452.262 94.2747 451.868 94.584 451.356 94.808C450.854 95.032 450.262 95.144 449.58 95.144ZM455.855 85.016C455.524 85.016 455.247 84.904 455.023 84.68C454.799 84.456 454.687 84.1787 454.687 83.848C454.687 83.5173 454.799 83.24 455.023 83.016C455.247 82.792 455.524 82.68 455.855 82.68C456.175 82.68 456.447 82.792 456.671 83.016C456.895 83.24 457.007 83.5173 457.007 83.848C457.007 84.1787 456.895 84.456 456.671 84.68C456.447 84.904 456.175 85.016 455.855 85.016ZM456.751 86.184V95H454.927V86.184H456.751ZM458.537 90.584C458.537 89.6773 458.719 88.8827 459.081 88.2C459.455 87.5067 459.967 86.9733 460.617 86.6C461.268 86.2267 462.015 86.04 462.857 86.04C463.924 86.04 464.804 86.296 465.497 86.808C466.201 87.3093 466.676 88.0293 466.921 88.968H464.953C464.793 88.5307 464.537 88.1893 464.185 87.944C463.833 87.6987 463.391 87.576 462.857 87.576C462.111 87.576 461.513 87.8427 461.065 88.376C460.628 88.8987 460.409 89.6347 460.409 90.584C460.409 91.5333 460.628 92.2747 461.065 92.808C461.513 93.3413 462.111 93.608 462.857 93.608C463.913 93.608 464.612 93.144 464.953 92.216H466.921C466.665 93.112 466.185 93.8267 465.481 94.36C464.777 94.8827 463.903 95.144 462.857 95.144C462.015 95.144 461.268 94.9573 460.617 94.584C459.967 94.2 459.455 93.6667 459.081 92.984C458.719 92.2907 458.537 91.4907 458.537 90.584ZM472.563 95.144C471.731 95.144 470.979 94.9573 470.307 94.584C469.635 94.2 469.107 93.6667 468.723 92.984C468.339 92.2907 468.147 91.4907 468.147 90.584C468.147 89.688 468.344 88.8933 468.739 88.2C469.134 87.5067 469.672 86.9733 470.355 86.6C471.038 86.2267 471.8 86.04 472.643 86.04C473.486 86.04 474.248 86.2267 474.931 86.6C475.614 86.9733 476.152 87.5067 476.547 88.2C476.942 88.8933 477.139 89.688 477.139 90.584C477.139 91.48 476.936 92.2747 476.531 92.968C476.126 93.6613 475.571 94.2 474.867 94.584C474.174 94.9573 473.406 95.144 472.563 95.144ZM472.563 93.56C473.032 93.56 473.47 93.448 473.875 93.224C474.291 93 474.627 92.664 474.883 92.216C475.139 91.768 475.267 91.224 475.267 90.584C475.267 89.944 475.144 89.4053 474.899 88.968C474.654 88.52 474.328 88.184 473.923 87.96C473.518 87.736 473.08 87.624 472.611 87.624C472.142 87.624 471.704 87.736 471.299 87.96C470.904 88.184 470.59 88.52 470.355 88.968C470.12 89.4053 470.003 89.944 470.003 90.584C470.003 91.5333 470.243 92.2693 470.723 92.792C471.214 93.304 471.827 93.56 472.563 93.56Z" fill="black"/>
<path d="M138.932 21.432C138.932 22.164 138.764 22.836 138.428 23.448C138.092 24.048 137.576 24.534 136.88 24.906C136.184 25.278 135.32 25.464 134.288 25.464H132.38V30H129.302V17.364H134.288C135.296 17.364 136.148 17.538 136.844 17.886C137.54 18.234 138.062 18.714 138.41 19.326C138.758 19.938 138.932 20.64 138.932 21.432ZM134.054 23.016C134.642 23.016 135.08 22.878 135.368 22.602C135.656 22.326 135.8 21.936 135.8 21.432C135.8 20.928 135.656 20.538 135.368 20.262C135.08 19.986 134.642 19.848 134.054 19.848H132.38V23.016H134.054ZM145.106 30.144C144.122 30.144 143.234 29.934 142.442 29.514C141.662 29.094 141.044 28.494 140.588 27.714C140.144 26.934 139.922 26.022 139.922 24.978C139.922 23.946 140.15 23.04 140.606 22.26C141.062 21.468 141.686 20.862 142.478 20.442C143.27 20.022 144.158 19.812 145.142 19.812C146.126 19.812 147.014 20.022 147.806 20.442C148.598 20.862 149.222 21.468 149.678 22.26C150.134 23.04 150.362 23.946 150.362 24.978C150.362 26.01 150.128 26.922 149.66 27.714C149.204 28.494 148.574 29.094 147.77 29.514C146.978 29.934 146.09 30.144 145.106 30.144ZM145.106 27.48C145.694 27.48 146.192 27.264 146.6 26.832C147.02 26.4 147.23 25.782 147.23 24.978C147.23 24.174 147.026 23.556 146.618 23.124C146.222 22.692 145.73 22.476 145.142 22.476C144.542 22.476 144.044 22.692 143.648 23.124C143.252 23.544 143.054 24.162 143.054 24.978C143.054 25.782 143.246 26.4 143.63 26.832C144.026 27.264 144.518 27.48 145.106 27.48ZM157.593 27.39V30H156.027C154.911 30 154.041 29.73 153.417 29.19C152.793 28.638 152.481 27.744 152.481 26.508V22.512H151.257V19.956H152.481V17.508H155.559V19.956H157.575V22.512H155.559V26.544C155.559 26.844 155.631 27.06 155.775 27.192C155.919 27.324 156.159 27.39 156.495 27.39H157.593ZM168.775 24.816C168.775 25.104 168.757 25.404 168.721 25.716H161.755C161.803 26.34 162.001 26.82 162.349 27.156C162.709 27.48 163.147 27.642 163.663 27.642C164.431 27.642 164.965 27.318 165.265 26.67H168.541C168.373 27.33 168.067 27.924 167.623 28.452C167.191 28.98 166.645 29.394 165.985 29.694C165.325 29.994 164.587 30.144 163.771 30.144C162.787 30.144 161.911 29.934 161.143 29.514C160.375 29.094 159.775 28.494 159.343 27.714C158.911 26.934 158.695 26.022 158.695 24.978C158.695 23.934 158.905 23.022 159.325 22.242C159.757 21.462 160.357 20.862 161.125 20.442C161.893 20.022 162.775 19.812 163.771 19.812C164.743 19.812 165.607 20.016 166.363 20.424C167.119 20.832 167.707 21.414 168.127 22.17C168.559 22.926 168.775 23.808 168.775 24.816ZM165.625 24.006C165.625 23.478 165.445 23.058 165.085 22.746C164.725 22.434 164.275 22.278 163.735 22.278C163.219 22.278 162.781 22.428 162.421 22.728C162.073 23.028 161.857 23.454 161.773 24.006H165.625ZM176.519 19.848C177.695 19.848 178.631 20.232 179.327 21C180.035 21.756 180.389 22.8 180.389 24.132V30H177.329V24.546C177.329 23.874 177.155 23.352 176.807 22.98C176.459 22.608 175.991 22.422 175.403 22.422C174.815 22.422 174.347 22.608 173.999 22.98C173.651 23.352 173.477 23.874 173.477 24.546V30H170.399V19.956H173.477V21.288C173.789 20.844 174.209 20.496 174.737 20.244C175.265 19.98 175.859 19.848 176.519 19.848ZM181.916 24.978C181.916 23.934 182.126 23.022 182.546 22.242C182.978 21.462 183.572 20.862 184.328 20.442C185.096 20.022 185.972 19.812 186.956 19.812C188.216 19.812 189.266 20.142 190.106 20.802C190.958 21.462 191.516 22.392 191.78 23.592H188.504C188.228 22.824 187.694 22.44 186.902 22.44C186.338 22.44 185.888 22.662 185.552 23.106C185.216 23.538 185.048 24.162 185.048 24.978C185.048 25.794 185.216 26.424 185.552 26.868C185.888 27.3 186.338 27.516 186.902 27.516C187.694 27.516 188.228 27.132 188.504 26.364H191.78C191.516 27.54 190.958 28.464 190.106 29.136C189.254 29.808 188.204 30.144 186.956 30.144C185.972 30.144 185.096 29.934 184.328 29.514C183.572 29.094 182.978 28.494 182.546 27.714C182.126 26.934 181.916 26.022 181.916 24.978ZM194.975 18.912C194.435 18.912 193.991 18.756 193.643 18.444C193.307 18.12 193.139 17.724 193.139 17.256C193.139 16.776 193.307 16.38 193.643 16.068C193.991 15.744 194.435 15.582 194.975 15.582C195.503 15.582 195.935 15.744 196.271 16.068C196.619 16.38 196.793 16.776 196.793 17.256C196.793 17.724 196.619 18.12 196.271 18.444C195.935 18.756 195.503 18.912 194.975 18.912ZM196.505 19.956V30H193.427V19.956H196.505ZM198.123 24.96C198.123 23.928 198.315 23.022 198.699 22.242C199.095 21.462 199.629 20.862 200.301 20.442C200.973 20.022 201.723 19.812 202.551 19.812C203.259 19.812 203.877 19.956 204.405 20.244C204.945 20.532 205.359 20.91 205.647 21.378V19.956H208.725V30H205.647V28.578C205.347 29.046 204.927 29.424 204.387 29.712C203.859 30 203.241 30.144 202.533 30.144C201.717 30.144 200.973 29.934 200.301 29.514C199.629 29.082 199.095 28.476 198.699 27.696C198.315 26.904 198.123 25.992 198.123 24.96ZM205.647 24.978C205.647 24.21 205.431 23.604 204.999 23.16C204.579 22.716 204.063 22.494 203.451 22.494C202.839 22.494 202.317 22.716 201.885 23.16C201.465 23.592 201.255 24.192 201.255 24.96C201.255 25.728 201.465 26.34 201.885 26.796C202.317 27.24 202.839 27.462 203.451 27.462C204.063 27.462 204.579 27.24 204.999 26.796C205.431 26.352 205.647 25.746 205.647 24.978ZM214.03 16.68V30H210.952V16.68H214.03ZM231.019 17.364V30H227.941V24.798H223.153V30H220.075V17.364H223.153V22.314H227.941V17.364H231.019ZM234.789 18.912C234.249 18.912 233.805 18.756 233.457 18.444C233.121 18.12 232.953 17.724 232.953 17.256C232.953 16.776 233.121 16.38 233.457 16.068C233.805 15.744 234.249 15.582 234.789 15.582C235.317 15.582 235.749 15.744 236.085 16.068C236.433 16.38 236.607 16.776 236.607 17.256C236.607 17.724 236.433 18.12 236.085 18.444C235.749 18.756 235.317 18.912 234.789 18.912ZM236.319 19.956V30H233.241V19.956H236.319ZM237.938 24.96C237.938 23.928 238.13 23.022 238.514 22.242C238.91 21.462 239.444 20.862 240.116 20.442C240.788 20.022 241.538 19.812 242.366 19.812C243.026 19.812 243.626 19.95 244.166 20.226C244.718 20.502 245.15 20.874 245.462 21.342V16.68H248.54V30H245.462V28.56C245.174 29.04 244.76 29.424 244.22 29.712C243.692 30 243.074 30.144 242.366 30.144C241.538 30.144 240.788 29.934 240.116 29.514C239.444 29.082 238.91 28.476 238.514 27.696C238.13 26.904 237.938 25.992 237.938 24.96ZM245.462 24.978C245.462 24.21 245.246 23.604 244.814 23.16C244.394 22.716 243.878 22.494 243.266 22.494C242.654 22.494 242.132 22.716 241.7 23.16C241.28 23.592 241.07 24.192 241.07 24.96C241.07 25.728 241.28 26.34 241.7 26.796C242.132 27.24 242.654 27.462 243.266 27.462C243.878 27.462 244.394 27.24 244.814 26.796C245.246 26.352 245.462 25.746 245.462 24.978ZM253.844 21.63C254.204 21.078 254.654 20.646 255.194 20.334C255.734 20.01 256.334 19.848 256.994 19.848V23.106H256.148C255.38 23.106 254.804 23.274 254.42 23.61C254.036 23.934 253.844 24.51 253.844 25.338V30H250.766V19.956H253.844V21.63ZM263.038 30.144C262.054 30.144 261.166 29.934 260.374 29.514C259.594 29.094 258.976 28.494 258.52 27.714C258.076 26.934 257.854 26.022 257.854 24.978C257.854 23.946 258.082 23.04 258.538 22.26C258.994 21.468 259.618 20.862 260.41 20.442C261.202 20.022 262.09 19.812 263.074 19.812C264.058 19.812 264.946 20.022 265.738 20.442C266.53 20.862 267.154 21.468 267.61 22.26C268.066 23.04 268.294 23.946 268.294 24.978C268.294 26.01 268.06 26.922 267.592 27.714C267.136 28.494 266.506 29.094 265.702 29.514C264.91 29.934 264.022 30.144 263.038 30.144ZM263.038 27.48C263.626 27.48 264.124 27.264 264.532 26.832C264.952 26.4 265.162 25.782 265.162 24.978C265.162 24.174 264.958 23.556 264.55 23.124C264.154 22.692 263.662 22.476 263.074 22.476C262.474 22.476 261.976 22.692 261.58 23.124C261.184 23.544 260.986 24.162 260.986 24.978C260.986 25.782 261.178 26.4 261.562 26.832C261.958 27.264 262.45 27.48 263.038 27.48ZM273.743 19.812C274.451 19.812 275.069 19.956 275.597 20.244C276.137 20.532 276.551 20.91 276.839 21.378V19.956H279.917V29.982C279.917 30.906 279.731 31.74 279.359 32.484C278.999 33.24 278.441 33.84 277.685 34.284C276.941 34.728 276.011 34.95 274.895 34.95C273.407 34.95 272.201 34.596 271.277 33.888C270.353 33.192 269.825 32.244 269.693 31.044H272.735C272.831 31.428 273.059 31.728 273.419 31.944C273.779 32.172 274.223 32.286 274.751 32.286C275.387 32.286 275.891 32.1 276.263 31.728C276.647 31.368 276.839 30.786 276.839 29.982V28.56C276.539 29.028 276.125 29.412 275.597 29.712C275.069 30 274.451 30.144 273.743 30.144C272.915 30.144 272.165 29.934 271.493 29.514C270.821 29.082 270.287 28.476 269.891 27.696C269.507 26.904 269.315 25.992 269.315 24.96C269.315 23.928 269.507 23.022 269.891 22.242C270.287 21.462 270.821 20.862 271.493 20.442C272.165 20.022 272.915 19.812 273.743 19.812ZM276.839 24.978C276.839 24.21 276.623 23.604 276.191 23.16C275.771 22.716 275.255 22.494 274.643 22.494C274.031 22.494 273.509 22.716 273.077 23.16C272.657 23.592 272.447 24.192 272.447 24.96C272.447 25.728 272.657 26.34 273.077 26.796C273.509 27.24 274.031 27.462 274.643 27.462C275.255 27.462 275.771 27.24 276.191 26.796C276.623 26.352 276.839 25.746 276.839 24.978ZM291.611 24.816C291.611 25.104 291.593 25.404 291.557 25.716H284.591C284.639 26.34 284.837 26.82 285.185 27.156C285.545 27.48 285.983 27.642 286.499 27.642C287.267 27.642 287.801 27.318 288.101 26.67H291.377C291.209 27.33 290.903 27.924 290.459 28.452C290.027 28.98 289.481 29.394 288.821 29.694C288.161 29.994 287.423 30.144 286.607 30.144C285.623 30.144 284.747 29.934 283.979 29.514C283.211 29.094 282.611 28.494 282.179 27.714C281.747 26.934 281.531 26.022 281.531 24.978C281.531 23.934 281.741 23.022 282.161 22.242C282.593 21.462 283.193 20.862 283.961 20.442C284.729 20.022 285.611 19.812 286.607 19.812C287.579 19.812 288.443 20.016 289.199 20.424C289.955 20.832 290.543 21.414 290.963 22.17C291.395 22.926 291.611 23.808 291.611 24.816ZM288.461 24.006C288.461 23.478 288.281 23.058 287.921 22.746C287.561 22.434 287.111 22.278 286.571 22.278C286.055 22.278 285.617 22.428 285.257 22.728C284.909 23.028 284.693 23.454 284.609 24.006H288.461ZM299.355 19.848C300.531 19.848 301.467 20.232 302.163 21C302.871 21.756 303.225 22.8 303.225 24.132V30H300.165V24.546C300.165 23.874 299.991 23.352 299.643 22.98C299.295 22.608 298.827 22.422 298.239 22.422C297.651 22.422 297.183 22.608 296.835 22.98C296.487 23.352 296.313 23.874 296.313 24.546V30H293.235V19.956H296.313V21.288C296.625 20.844 297.045 20.496 297.573 20.244C298.101 19.98 298.695 19.848 299.355 19.848ZM306.912 18.912C306.372 18.912 305.928 18.756 305.58 18.444C305.244 18.12 305.076 17.724 305.076 17.256C305.076 16.776 305.244 16.38 305.58 16.068C305.928 15.744 306.372 15.582 306.912 15.582C307.44 15.582 307.872 15.744 308.208 16.068C308.556 16.38 308.73 16.776 308.73 17.256C308.73 17.724 308.556 18.12 308.208 18.444C307.872 18.756 307.44 18.912 306.912 18.912ZM308.442 19.956V30H305.364V19.956H308.442ZM315.245 30.144C314.261 30.144 313.373 29.934 312.581 29.514C311.801 29.094 311.183 28.494 310.727 27.714C310.283 26.934 310.061 26.022 310.061 24.978C310.061 23.946 310.289 23.04 310.745 22.26C311.201 21.468 311.825 20.862 312.617 20.442C313.409 20.022 314.297 19.812 315.281 19.812C316.265 19.812 317.153 20.022 317.945 20.442C318.737 20.862 319.361 21.468 319.817 22.26C320.273 23.04 320.501 23.946 320.501 24.978C320.501 26.01 320.267 26.922 319.799 27.714C319.343 28.494 318.713 29.094 317.909 29.514C317.117 29.934 316.229 30.144 315.245 30.144ZM315.245 27.48C315.833 27.48 316.331 27.264 316.739 26.832C317.159 26.4 317.369 25.782 317.369 24.978C317.369 24.174 317.165 23.556 316.757 23.124C316.361 22.692 315.869 22.476 315.281 22.476C314.681 22.476 314.183 22.692 313.787 23.124C313.391 23.544 313.193 24.162 313.193 24.978C313.193 25.782 313.385 26.4 313.769 26.832C314.165 27.264 314.657 27.48 315.245 27.48ZM315.533 17.724L312.743 19.2V17.076L315.533 15.654L318.323 17.076V19.2L315.533 17.724ZM328.254 19.848C329.43 19.848 330.366 20.232 331.062 21C331.77 21.756 332.124 22.8 332.124 24.132V30H329.064V24.546C329.064 23.874 328.89 23.352 328.542 22.98C328.194 22.608 327.726 22.422 327.138 22.422C326.55 22.422 326.082 22.608 325.734 22.98C325.386 23.352 325.212 23.874 325.212 24.546V30H322.134V19.956H325.212V21.288C325.524 20.844 325.944 20.496 326.472 20.244C327 19.98 327.594 19.848 328.254 19.848ZM335.81 18.912C335.27 18.912 334.826 18.756 334.478 18.444C334.142 18.12 333.974 17.724 333.974 17.256C333.974 16.776 334.142 16.38 334.478 16.068C334.826 15.744 335.27 15.582 335.81 15.582C336.338 15.582 336.77 15.744 337.106 16.068C337.454 16.38 337.628 16.776 337.628 17.256C337.628 17.724 337.454 18.12 337.106 18.444C336.77 18.756 336.338 18.912 335.81 18.912ZM337.34 19.956V30H334.262V19.956H337.34ZM338.959 24.978C338.959 23.934 339.169 23.022 339.589 22.242C340.021 21.462 340.615 20.862 341.371 20.442C342.139 20.022 343.015 19.812 343.999 19.812C345.259 19.812 346.309 20.142 347.149 20.802C348.001 21.462 348.559 22.392 348.823 23.592H345.547C345.271 22.824 344.737 22.44 343.945 22.44C343.381 22.44 342.931 22.662 342.595 23.106C342.259 23.538 342.091 24.162 342.091 24.978C342.091 25.794 342.259 26.424 342.595 26.868C342.931 27.3 343.381 27.516 343.945 27.516C344.737 27.516 345.271 27.132 345.547 26.364H348.823C348.559 27.54 348.001 28.464 347.149 29.136C346.297 29.808 345.247 30.144 343.999 30.144C343.015 30.144 342.139 29.934 341.371 29.514C340.615 29.094 340.021 28.494 339.589 27.714C339.169 26.934 338.959 26.022 338.959 24.978ZM355.042 30.144C354.058 30.144 353.17 29.934 352.378 29.514C351.598 29.094 350.98 28.494 350.524 27.714C350.08 26.934 349.858 26.022 349.858 24.978C349.858 23.946 350.086 23.04 350.542 22.26C350.998 21.468 351.622 20.862 352.414 20.442C353.206 20.022 354.094 19.812 355.078 19.812C356.062 19.812 356.95 20.022 357.742 20.442C358.534 20.862 359.158 21.468 359.614 22.26C360.07 23.04 360.298 23.946 360.298 24.978C360.298 26.01 360.064 26.922 359.596 27.714C359.14 28.494 358.51 29.094 357.706 29.514C356.914 29.934 356.026 30.144 355.042 30.144ZM355.042 27.48C355.63 27.48 356.128 27.264 356.536 26.832C356.956 26.4 357.166 25.782 357.166 24.978C357.166 24.174 356.962 23.556 356.554 23.124C356.158 22.692 355.666 22.476 355.078 22.476C354.478 22.476 353.98 22.692 353.584 23.124C353.188 23.544 352.99 24.162 352.99 24.978C352.99 25.782 353.182 26.4 353.566 26.832C353.962 27.264 354.454 27.48 355.042 27.48Z" fill="white"/>
<path d="M91.2795 126L90.2015 124.096H89.7395V126H88.7595V121.114H90.5935C90.9715 121.114 91.2935 121.182 91.5595 121.317C91.8255 121.448 92.0239 121.627 92.1545 121.856C92.2899 122.08 92.3575 122.332 92.3575 122.612C92.3575 122.934 92.2642 123.226 92.0775 123.487C91.8909 123.744 91.6132 123.921 91.2445 124.019L92.4135 126H91.2795ZM89.7395 123.361H90.5585C90.8245 123.361 91.0229 123.298 91.1535 123.172C91.2842 123.041 91.3495 122.862 91.3495 122.633C91.3495 122.409 91.2842 122.236 91.1535 122.115C91.0229 121.989 90.8245 121.926 90.5585 121.926H89.7395V123.361ZM94.0839 121.905V123.13H95.7289V123.907H94.0839V125.202H95.9389V126H93.1039V121.107H95.9389V121.905H94.0839ZM99.7065 121.114V121.905H97.6695V123.158H99.2305V123.935H97.6695V126H96.6895V121.114H99.7065ZM102.781 126L101.703 124.096H101.241V126H100.261V121.114H102.095C102.473 121.114 102.795 121.182 103.061 121.317C103.327 121.448 103.526 121.627 103.656 121.856C103.792 122.08 103.859 122.332 103.859 122.612C103.859 122.934 103.766 123.226 103.579 123.487C103.393 123.744 103.115 123.921 102.746 124.019L103.915 126H102.781ZM101.241 123.361H102.06C102.326 123.361 102.525 123.298 102.655 123.172C102.786 123.041 102.851 122.862 102.851 122.633C102.851 122.409 102.786 122.236 102.655 122.115C102.525 121.989 102.326 121.926 102.06 121.926H101.241V123.361ZM105.586 121.114V126H104.606V121.114H105.586ZM109.816 122.584C109.704 122.379 109.55 122.222 109.354 122.115C109.158 122.008 108.929 121.954 108.668 121.954C108.379 121.954 108.122 122.019 107.898 122.15C107.674 122.281 107.499 122.467 107.373 122.71C107.247 122.953 107.184 123.233 107.184 123.55C107.184 123.877 107.247 124.161 107.373 124.404C107.504 124.647 107.683 124.833 107.912 124.964C108.141 125.095 108.407 125.16 108.71 125.16C109.083 125.16 109.389 125.062 109.627 124.866C109.865 124.665 110.021 124.388 110.096 124.033H108.416V123.284H111.062V124.138C110.997 124.479 110.857 124.794 110.642 125.083C110.427 125.372 110.15 125.606 109.809 125.783C109.473 125.956 109.095 126.042 108.675 126.042C108.204 126.042 107.777 125.937 107.394 125.727C107.016 125.512 106.717 125.216 106.498 124.838C106.283 124.46 106.176 124.031 106.176 123.55C106.176 123.069 106.283 122.64 106.498 122.262C106.717 121.879 107.016 121.583 107.394 121.373C107.777 121.158 108.201 121.051 108.668 121.051C109.219 121.051 109.697 121.186 110.103 121.457C110.509 121.723 110.789 122.099 110.943 122.584H109.816ZM112.627 121.905V123.13H114.272V123.907H112.627V125.202H114.482V126H111.647V121.107H114.482V121.905H112.627ZM117.753 126L116.675 124.096H116.213V126H115.233V121.114H117.067C117.445 121.114 117.767 121.182 118.033 121.317C118.299 121.448 118.497 121.627 118.628 121.856C118.763 122.08 118.831 122.332 118.831 122.612C118.831 122.934 118.737 123.226 118.551 123.487C118.364 123.744 118.086 123.921 117.718 124.019L118.887 126H117.753ZM116.213 123.361H117.032C117.298 123.361 117.496 123.298 117.627 123.172C117.757 123.041 117.823 122.862 117.823 122.633C117.823 122.409 117.757 122.236 117.627 122.115C117.496 121.989 117.298 121.926 117.032 121.926H116.213V123.361ZM122.573 125.069H120.627L120.305 126H119.276L121.033 121.107H122.174L123.931 126H122.895L122.573 125.069ZM122.307 124.285L121.6 122.241L120.893 124.285H122.307ZM128.627 126H127.647L125.428 122.647V126H124.448V121.107H125.428L127.647 124.467V121.107H128.627V126ZM132.78 121.114V121.905H131.478V126H130.498V121.905H129.196V121.114H132.78ZM134.335 121.905V123.13H135.98V123.907H134.335V125.202H136.19V126H133.355V121.107H136.19V121.905H134.335ZM138.628 126.049C138.287 126.049 137.979 125.991 137.704 125.874C137.433 125.757 137.219 125.589 137.06 125.37C136.901 125.151 136.82 124.892 136.815 124.593H137.865C137.879 124.794 137.949 124.952 138.075 125.069C138.206 125.186 138.383 125.244 138.607 125.244C138.836 125.244 139.015 125.19 139.146 125.083C139.277 124.971 139.342 124.826 139.342 124.649C139.342 124.504 139.298 124.385 139.209 124.292C139.12 124.199 139.008 124.126 138.873 124.075C138.742 124.019 138.56 123.958 138.327 123.893C138.01 123.8 137.751 123.709 137.55 123.62C137.354 123.527 137.184 123.389 137.039 123.207C136.899 123.02 136.829 122.773 136.829 122.465C136.829 122.176 136.901 121.924 137.046 121.709C137.191 121.494 137.394 121.331 137.655 121.219C137.916 121.102 138.215 121.044 138.551 121.044C139.055 121.044 139.463 121.168 139.776 121.415C140.093 121.658 140.268 121.998 140.301 122.437H139.223C139.214 122.269 139.141 122.131 139.006 122.024C138.875 121.912 138.7 121.856 138.481 121.856C138.29 121.856 138.136 121.905 138.019 122.003C137.907 122.101 137.851 122.243 137.851 122.43C137.851 122.561 137.893 122.67 137.977 122.759C138.066 122.843 138.173 122.913 138.299 122.969C138.43 123.02 138.612 123.081 138.845 123.151C139.162 123.244 139.421 123.338 139.622 123.431C139.823 123.524 139.995 123.664 140.14 123.851C140.285 124.038 140.357 124.283 140.357 124.586C140.357 124.847 140.289 125.09 140.154 125.314C140.019 125.538 139.82 125.718 139.559 125.853C139.298 125.984 138.987 126.049 138.628 126.049Z" fill="black"/>
<path d="M174.541 125.069H172.595L172.273 126H171.244L173.001 121.107H174.142L175.899 126H174.863L174.541 125.069ZM174.275 124.285L173.568 122.241L172.861 124.285H174.275ZM174.331 120.099L172.721 120.834V120.134L174.331 119.301V120.099ZM179.817 122.584C179.705 122.379 179.551 122.222 179.355 122.115C179.159 122.008 178.931 121.954 178.669 121.954C178.38 121.954 178.123 122.019 177.899 122.15C177.675 122.281 177.5 122.467 177.374 122.71C177.248 122.953 177.185 123.233 177.185 123.55C177.185 123.877 177.248 124.161 177.374 124.404C177.505 124.647 177.685 124.833 177.913 124.964C178.142 125.095 178.408 125.16 178.711 125.16C179.085 125.16 179.39 125.062 179.628 124.866C179.866 124.665 180.023 124.388 180.097 124.033H178.417V123.284H181.063V124.138C180.998 124.479 180.858 124.794 180.643 125.083C180.429 125.372 180.151 125.606 179.81 125.783C179.474 125.956 179.096 126.042 178.676 126.042C178.205 126.042 177.778 125.937 177.395 125.727C177.017 125.512 176.719 125.216 176.499 124.838C176.285 124.46 176.177 124.031 176.177 123.55C176.177 123.069 176.285 122.64 176.499 122.262C176.719 121.879 177.017 121.583 177.395 121.373C177.778 121.158 178.203 121.051 178.669 121.051C179.22 121.051 179.698 121.186 180.104 121.457C180.51 121.723 180.79 122.099 180.944 122.584H179.817ZM182.615 121.114V124.138C182.615 124.469 182.701 124.724 182.874 124.901C183.046 125.074 183.289 125.16 183.602 125.16C183.919 125.16 184.164 125.074 184.337 124.901C184.509 124.724 184.596 124.469 184.596 124.138V121.114H185.583V124.131C185.583 124.546 185.492 124.899 185.31 125.188C185.132 125.473 184.892 125.687 184.589 125.832C184.29 125.977 183.956 126.049 183.588 126.049C183.224 126.049 182.892 125.977 182.594 125.832C182.3 125.687 182.066 125.473 181.894 125.188C181.721 124.899 181.635 124.546 181.635 124.131V121.114H182.615ZM189.385 125.069H187.439L187.117 126H186.088L187.845 121.107H188.986L190.743 126H189.707L189.385 125.069ZM189.119 124.285L188.412 122.241L187.705 124.285H189.119ZM194.496 121.114C195.009 121.114 195.46 121.214 195.847 121.415C196.239 121.616 196.54 121.903 196.75 122.276C196.965 122.645 197.072 123.074 197.072 123.564C197.072 124.054 196.965 124.483 196.75 124.852C196.54 125.216 196.239 125.498 195.847 125.699C195.46 125.9 195.009 126 194.496 126H192.788V121.114H194.496ZM194.461 125.167C194.974 125.167 195.371 125.027 195.651 124.747C195.931 124.467 196.071 124.073 196.071 123.564C196.071 123.055 195.931 122.659 195.651 122.374C195.371 122.085 194.974 121.94 194.461 121.94H193.768V125.167H194.461ZM200.662 125.069H198.716L198.394 126H197.365L199.122 121.107H200.263L202.02 126H200.984L200.662 125.069ZM200.396 124.285L199.689 122.241L198.982 124.285H200.396ZM207.389 121.114V121.905H206.087V126H205.107V121.905H203.805V121.114H207.389ZM210.232 126.049C209.775 126.049 209.355 125.942 208.972 125.727C208.59 125.512 208.286 125.216 208.062 124.838C207.838 124.455 207.726 124.024 207.726 123.543C207.726 123.067 207.838 122.64 208.062 122.262C208.286 121.879 208.59 121.581 208.972 121.366C209.355 121.151 209.775 121.044 210.232 121.044C210.694 121.044 211.114 121.151 211.492 121.366C211.875 121.581 212.176 121.879 212.395 122.262C212.619 122.64 212.731 123.067 212.731 123.543C212.731 124.024 212.619 124.455 212.395 124.838C212.176 125.216 211.875 125.512 211.492 125.727C211.11 125.942 210.69 126.049 210.232 126.049ZM210.232 125.174C210.526 125.174 210.785 125.109 211.009 124.978C211.233 124.843 211.408 124.651 211.534 124.404C211.66 124.157 211.723 123.87 211.723 123.543C211.723 123.216 211.66 122.932 211.534 122.689C211.408 122.442 211.233 122.253 211.009 122.122C210.785 121.991 210.526 121.926 210.232 121.926C209.938 121.926 209.677 121.991 209.448 122.122C209.224 122.253 209.049 122.442 208.923 122.689C208.797 122.932 208.734 123.216 208.734 123.543C208.734 123.87 208.797 124.157 208.923 124.404C209.049 124.651 209.224 124.843 209.448 124.978C209.677 125.109 209.938 125.174 210.232 125.174ZM215.84 126L214.762 124.096H214.3V126H213.32V121.114H215.154C215.532 121.114 215.854 121.182 216.12 121.317C216.386 121.448 216.585 121.627 216.715 121.856C216.851 122.08 216.918 122.332 216.918 122.612C216.918 122.934 216.825 123.226 216.638 123.487C216.452 123.744 216.174 123.921 215.805 124.019L216.974 126H215.84ZM214.3 123.361H215.119C215.385 123.361 215.584 123.298 215.714 123.172C215.845 123.041 215.91 122.862 215.91 122.633C215.91 122.409 215.845 122.236 215.714 122.115C215.584 121.989 215.385 121.926 215.119 121.926H214.3V123.361ZM221.844 126H220.864L218.645 122.647V126H217.665V121.107H218.645L220.864 124.467V121.107H221.844V126ZM223.652 121.905V123.13H225.297V123.907H223.652V125.202H225.507V126H222.672V121.107H225.507V121.905H223.652ZM227.238 121.114V126H226.258V121.114H227.238ZM230.586 126L229.508 124.096H229.046V126H228.066V121.114H229.9C230.278 121.114 230.6 121.182 230.866 121.317C231.132 121.448 231.33 121.627 231.461 121.856C231.596 122.08 231.664 122.332 231.664 122.612C231.664 122.934 231.571 123.226 231.384 123.487C231.197 123.744 230.92 123.921 230.551 124.019L231.72 126H230.586ZM229.046 123.361H229.865C230.131 123.361 230.329 123.298 230.46 123.172C230.591 123.041 230.656 122.862 230.656 122.633C230.656 122.409 230.591 122.236 230.46 122.115C230.329 121.989 230.131 121.926 229.865 121.926H229.046V123.361ZM235.407 125.069H233.461L233.139 126H232.11L233.867 121.107H235.008L236.765 126H235.729L235.407 125.069ZM235.141 124.285L234.434 122.241L233.727 124.285H235.141Z" fill="black"/>
<path d="M263.55 126.049C263.209 126.049 262.901 125.991 262.626 125.874C262.355 125.757 262.141 125.589 261.982 125.37C261.823 125.151 261.742 124.892 261.737 124.593H262.787C262.801 124.794 262.871 124.952 262.997 125.069C263.128 125.186 263.305 125.244 263.529 125.244C263.758 125.244 263.937 125.19 264.068 125.083C264.199 124.971 264.264 124.826 264.264 124.649C264.264 124.504 264.22 124.385 264.131 124.292C264.042 124.199 263.93 124.126 263.795 124.075C263.664 124.019 263.482 123.958 263.249 123.893C262.932 123.8 262.673 123.709 262.472 123.62C262.276 123.527 262.106 123.389 261.961 123.207C261.821 123.02 261.751 122.773 261.751 122.465C261.751 122.176 261.823 121.924 261.968 121.709C262.113 121.494 262.316 121.331 262.577 121.219C262.838 121.102 263.137 121.044 263.473 121.044C263.977 121.044 264.385 121.168 264.698 121.415C265.015 121.658 265.19 121.998 265.223 122.437H264.145C264.136 122.269 264.063 122.131 263.928 122.024C263.797 121.912 263.622 121.856 263.403 121.856C263.212 121.856 263.058 121.905 262.941 122.003C262.829 122.101 262.773 122.243 262.773 122.43C262.773 122.561 262.815 122.67 262.899 122.759C262.988 122.843 263.095 122.913 263.221 122.969C263.352 123.02 263.534 123.081 263.767 123.151C264.084 123.244 264.343 123.338 264.544 123.431C264.745 123.524 264.917 123.664 265.062 123.851C265.207 124.038 265.279 124.283 265.279 124.586C265.279 124.847 265.211 125.09 265.076 125.314C264.941 125.538 264.742 125.718 264.481 125.853C264.22 125.984 263.909 126.049 263.55 126.049ZM268.985 125.069H267.039L266.717 126H265.688L267.445 121.107H268.586L270.343 126H269.307L268.985 125.069ZM268.719 124.285L268.012 122.241L267.305 124.285H268.719ZM275.038 126H274.058L271.839 122.647V126H270.859V121.107H271.839L274.058 124.467V121.107H275.038V126ZM279.269 122.584C279.157 122.379 279.003 122.222 278.807 122.115C278.611 122.008 278.382 121.954 278.121 121.954C277.832 121.954 277.575 122.019 277.351 122.15C277.127 122.281 276.952 122.467 276.826 122.71C276.7 122.953 276.637 123.233 276.637 123.55C276.637 123.877 276.7 124.161 276.826 124.404C276.957 124.647 277.136 124.833 277.365 124.964C277.594 125.095 277.86 125.16 278.163 125.16C278.536 125.16 278.842 125.062 279.08 124.866C279.318 124.665 279.474 124.388 279.549 124.033H277.869V123.284H280.515V124.138C280.45 124.479 280.31 124.794 280.095 125.083C279.88 125.372 279.603 125.606 279.262 125.783C278.926 125.956 278.548 126.042 278.128 126.042C277.657 126.042 277.23 125.937 276.847 125.727C276.469 125.512 276.17 125.216 275.951 124.838C275.736 124.46 275.629 124.031 275.629 123.55C275.629 123.069 275.736 122.64 275.951 122.262C276.17 121.879 276.469 121.583 276.847 121.373C277.23 121.158 277.654 121.051 278.121 121.051C278.672 121.051 279.15 121.186 279.556 121.457C279.962 121.723 280.242 122.099 280.396 122.584H279.269ZM282.066 121.114V124.138C282.066 124.469 282.152 124.724 282.325 124.901C282.498 125.074 282.74 125.16 283.053 125.16C283.37 125.16 283.615 125.074 283.788 124.901C283.961 124.724 284.047 124.469 284.047 124.138V121.114H285.034V124.131C285.034 124.546 284.943 124.899 284.761 125.188C284.584 125.473 284.343 125.687 284.04 125.832C283.741 125.977 283.408 126.049 283.039 126.049C282.675 126.049 282.344 125.977 282.045 125.832C281.751 125.687 281.518 125.473 281.345 125.188C281.172 124.899 281.086 124.546 281.086 124.131V121.114H282.066ZM286.821 121.905V123.13H288.466V123.907H286.821V125.202H288.676V126H285.841V121.107H288.676V121.905H286.821ZM295.007 121.114V126H294.027V123.921H291.934V126H290.954V121.114H291.934V123.123H294.027V121.114H295.007ZM296.798 121.114V124.138C296.798 124.469 296.884 124.724 297.057 124.901C297.23 125.074 297.472 125.16 297.785 125.16C298.102 125.16 298.347 125.074 298.52 124.901C298.693 124.724 298.779 124.469 298.779 124.138V121.114H299.766V124.131C299.766 124.546 299.675 124.899 299.493 125.188C299.316 125.473 299.075 125.687 298.772 125.832C298.473 125.977 298.14 126.049 297.771 126.049C297.407 126.049 297.076 125.977 296.777 125.832C296.483 125.687 296.25 125.473 296.077 125.188C295.904 124.899 295.818 124.546 295.818 124.131V121.114H296.798ZM305.9 121.114V126H304.92V122.822L303.611 126H302.869L301.553 122.822V126H300.573V121.114H301.686L303.24 124.747L304.794 121.114H305.9ZM309.725 125.069H307.779L307.457 126H306.428L308.185 121.107H309.326L311.083 126H310.047L309.725 125.069ZM309.459 124.285L308.752 122.241L308.045 124.285H309.459ZM315.778 126H314.798L312.579 122.647V126H311.599V121.107H312.579L314.798 124.467V121.107H315.778V126ZM318.875 126.049C318.418 126.049 317.998 125.942 317.615 125.727C317.232 125.512 316.929 125.216 316.705 124.838C316.481 124.455 316.369 124.024 316.369 123.543C316.369 123.067 316.481 122.64 316.705 122.262C316.929 121.879 317.232 121.581 317.615 121.366C317.998 121.151 318.418 121.044 318.875 121.044C319.337 121.044 319.757 121.151 320.135 121.366C320.518 121.581 320.819 121.879 321.038 122.262C321.262 122.64 321.374 123.067 321.374 123.543C321.374 124.024 321.262 124.455 321.038 124.838C320.819 125.216 320.518 125.512 320.135 125.727C319.752 125.942 319.332 126.049 318.875 126.049ZM318.875 125.174C319.169 125.174 319.428 125.109 319.652 124.978C319.876 124.843 320.051 124.651 320.177 124.404C320.303 124.157 320.366 123.87 320.366 123.543C320.366 123.216 320.303 122.932 320.177 122.689C320.051 122.442 319.876 122.253 319.652 122.122C319.428 121.991 319.169 121.926 318.875 121.926C318.581 121.926 318.32 121.991 318.091 122.122C317.867 122.253 317.692 122.442 317.566 122.689C317.44 122.932 317.377 123.216 317.377 123.543C317.377 123.87 317.44 124.157 317.566 124.404C317.692 124.651 317.867 124.843 318.091 124.978C318.32 125.109 318.581 125.174 318.875 125.174Z" fill="black"/>
<path d="M336.788 125.069H334.842L334.52 126H333.491L335.248 121.107H336.389L338.146 126H337.11L336.788 125.069ZM336.522 124.285L335.815 122.241L335.108 124.285H336.522ZM336.578 120.099L334.968 120.834V120.134L336.578 119.301V120.099ZM342.064 122.584C341.952 122.379 341.798 122.222 341.602 122.115C341.406 122.008 341.178 121.954 340.916 121.954C340.627 121.954 340.37 122.019 340.146 122.15C339.922 122.281 339.747 122.467 339.621 122.71C339.495 122.953 339.432 123.233 339.432 123.55C339.432 123.877 339.495 124.161 339.621 124.404C339.752 124.647 339.932 124.833 340.16 124.964C340.389 125.095 340.655 125.16 340.958 125.16C341.332 125.16 341.637 125.062 341.875 124.866C342.113 124.665 342.27 124.388 342.344 124.033H340.664V123.284H343.31V124.138C343.245 124.479 343.105 124.794 342.89 125.083C342.676 125.372 342.398 125.606 342.057 125.783C341.721 125.956 341.343 126.042 340.923 126.042C340.452 126.042 340.025 125.937 339.642 125.727C339.264 125.512 338.966 125.216 338.746 124.838C338.532 124.46 338.424 124.031 338.424 123.55C338.424 123.069 338.532 122.64 338.746 122.262C338.966 121.879 339.264 121.583 339.642 121.373C340.025 121.158 340.45 121.051 340.916 121.051C341.467 121.051 341.945 121.186 342.351 121.457C342.757 121.723 343.037 122.099 343.191 122.584H342.064ZM344.861 121.114V124.138C344.861 124.469 344.948 124.724 345.12 124.901C345.293 125.074 345.536 125.16 345.848 125.16C346.166 125.16 346.411 125.074 346.583 124.901C346.756 124.724 346.842 124.469 346.842 124.138V121.114H347.829V124.131C347.829 124.546 347.738 124.899 347.556 125.188C347.379 125.473 347.139 125.687 346.835 125.832C346.537 125.977 346.203 126.049 345.834 126.049C345.47 126.049 345.139 125.977 344.84 125.832C344.546 125.687 344.313 125.473 344.14 125.188C343.968 124.899 343.881 124.546 343.881 124.131V121.114H344.861ZM351.632 125.069H349.686L349.364 126H348.335L350.092 121.107H351.233L352.99 126H351.954L351.632 125.069ZM351.366 124.285L350.659 122.241L349.952 124.285H351.366ZM356.015 121.114V126H355.035V121.114H356.015ZM358.551 121.114C359.064 121.114 359.515 121.214 359.902 121.415C360.294 121.616 360.595 121.903 360.805 122.276C361.02 122.645 361.127 123.074 361.127 123.564C361.127 124.054 361.02 124.483 360.805 124.852C360.595 125.216 360.294 125.498 359.902 125.699C359.515 125.9 359.064 126 358.551 126H356.843V121.114H358.551ZM358.516 125.167C359.029 125.167 359.426 125.027 359.706 124.747C359.986 124.467 360.126 124.073 360.126 123.564C360.126 123.055 359.986 122.659 359.706 122.374C359.426 122.085 359.029 121.94 358.516 121.94H357.823V125.167H358.516ZM362.701 121.905V123.13H364.346V123.907H362.701V125.202H364.556V126H361.721V121.107H364.556V121.905H362.701ZM368.302 125.069H366.356L366.034 126H365.005L366.762 121.107H367.903L369.66 126H368.624L368.302 125.069ZM368.036 124.285L367.329 122.241L366.622 124.285H368.036ZM371.157 125.223H372.767V126H370.177V121.114H371.157V125.223ZM377.774 125.069H375.828L375.506 126H374.477L376.234 121.107H377.375L379.132 126H378.096L377.774 125.069ZM377.508 124.285L376.801 122.241L376.094 124.285H377.508ZM380.629 125.223H382.239V126H379.649V121.114H380.629V125.223ZM382.484 123.55C382.484 123.069 382.591 122.64 382.806 122.262C383.025 121.879 383.321 121.583 383.695 121.373C384.073 121.158 384.495 121.051 384.962 121.051C385.508 121.051 385.986 121.191 386.397 121.471C386.807 121.751 387.094 122.138 387.258 122.633H386.131C386.019 122.4 385.86 122.225 385.655 122.108C385.454 121.991 385.221 121.933 384.955 121.933C384.67 121.933 384.416 122.001 384.192 122.136C383.972 122.267 383.8 122.453 383.674 122.696C383.552 122.939 383.492 123.223 383.492 123.55C383.492 123.872 383.552 124.157 383.674 124.404C383.8 124.647 383.972 124.836 384.192 124.971C384.416 125.102 384.67 125.167 384.955 125.167C385.221 125.167 385.454 125.109 385.655 124.992C385.86 124.871 386.019 124.693 386.131 124.46H387.258C387.094 124.959 386.807 125.349 386.397 125.629C385.991 125.904 385.512 126.042 384.962 126.042C384.495 126.042 384.073 125.937 383.695 125.727C383.321 125.512 383.025 125.216 382.806 124.838C382.591 124.46 382.484 124.031 382.484 123.55ZM390.951 125.069H389.005L388.683 126H387.654L389.411 121.107H390.552L392.309 126H391.273L390.951 125.069ZM390.685 124.285L389.978 122.241L389.271 124.285H390.685ZM393.805 125.223H395.415V126H392.825V121.114H393.805V125.223ZM396.878 121.114V126H395.898V121.114H396.878ZM401.885 126H400.905L398.686 122.647V126H397.706V121.107H398.686L400.905 124.467V121.107H401.885V126ZM403.694 121.114V126H402.714V121.114H403.694ZM405.523 125.174H407.721V126H404.389V125.244L406.573 121.94H404.389V121.114H407.721V121.87L405.523 125.174ZM411.411 125.069H409.465L409.143 126H408.114L409.871 121.107H411.012L412.769 126H411.733L411.411 125.069ZM411.145 124.285L410.438 122.241L409.731 124.285H411.145ZM414.994 121.114C415.507 121.114 415.958 121.214 416.345 121.415C416.737 121.616 417.038 121.903 417.248 122.276C417.463 122.645 417.57 123.074 417.57 123.564C417.57 124.054 417.463 124.483 417.248 124.852C417.038 125.216 416.737 125.498 416.345 125.699C415.958 125.9 415.507 126 414.994 126H413.286V121.114H414.994ZM414.959 125.167C415.472 125.167 415.869 125.027 416.149 124.747C416.429 124.467 416.569 124.073 416.569 123.564C416.569 123.055 416.429 122.659 416.149 122.374C415.869 122.085 415.472 121.94 414.959 121.94H414.266V125.167H414.959ZM421.16 125.069H419.214L418.892 126H417.863L419.62 121.107H420.761L422.518 126H421.482L421.16 125.069ZM420.894 124.285L420.187 122.241L419.48 124.285H420.894Z" fill="black"/>
<path d="M107.06 55.626C107.06 55.8873 106.997 56.1323 106.871 56.361C106.749 56.5897 106.556 56.774 106.29 56.914C106.028 57.054 105.697 57.124 105.296 57.124H104.477V59H103.497V54.114H105.296C105.674 54.114 105.996 54.1793 106.262 54.31C106.528 54.4407 106.726 54.6203 106.857 54.849C106.992 55.0777 107.06 55.3367 107.06 55.626ZM105.254 56.333C105.524 56.333 105.725 56.2723 105.856 56.151C105.986 56.025 106.052 55.85 106.052 55.626C106.052 55.15 105.786 54.912 105.254 54.912H104.477V56.333H105.254ZM111.668 54.114V59H110.688V56.921H108.595V59H107.615V54.114H108.595V56.123H110.688V54.114H111.668ZM114.217 57.894C114.665 57.5207 115.022 57.2103 115.288 56.963C115.554 56.711 115.776 56.4497 115.953 56.179C116.13 55.9083 116.219 55.6423 116.219 55.381C116.219 55.143 116.163 54.9563 116.051 54.821C115.939 54.6857 115.766 54.618 115.533 54.618C115.3 54.618 115.12 54.6973 114.994 54.856C114.868 55.01 114.803 55.2223 114.798 55.493H113.846C113.865 54.933 114.03 54.5083 114.343 54.219C114.66 53.9297 115.062 53.785 115.547 53.785C116.079 53.785 116.487 53.9273 116.772 54.212C117.057 54.492 117.199 54.863 117.199 55.325C117.199 55.689 117.101 56.0367 116.905 56.368C116.709 56.6993 116.485 56.9887 116.233 57.236C115.981 57.4787 115.652 57.7727 115.246 58.118H117.311V58.93H113.853V58.202L114.217 57.894ZM120.882 56.088V56.914H117.914V56.088H120.882ZM121.687 58.006V57.236L123.976 53.96H125.117V57.152H125.733V58.006H125.117V59H124.137V58.006H121.687ZM124.2 55.01L122.765 57.152H124.2V55.01Z" fill="black" fill-opacity="0.7"/>
<path d="M197.152 55.626C197.152 55.8873 197.089 56.1323 196.963 56.361C196.842 56.5897 196.648 56.774 196.382 56.914C196.121 57.054 195.789 57.124 195.388 57.124H194.569V59H193.589V54.114H195.388C195.766 54.114 196.088 54.1793 196.354 54.31C196.62 54.4407 196.818 54.6203 196.949 54.849C197.084 55.0777 197.152 55.3367 197.152 55.626ZM195.346 56.333C195.617 56.333 195.817 56.2723 195.948 56.151C196.079 56.025 196.144 55.85 196.144 55.626C196.144 55.15 195.878 54.912 195.346 54.912H194.569V56.333H195.346ZM201.761 54.114V59H200.781V56.921H198.688V59H197.708V54.114H198.688V56.123H200.781V54.114H201.761ZM203.959 58.006V57.236L206.248 53.96H207.389V57.152H208.005V58.006H207.389V59H206.409V58.006H203.959ZM206.472 55.01L205.037 57.152H206.472V55.01ZM211.583 56.088V56.914H208.615V56.088H211.583ZM215.678 54.639L213.816 59H212.822L214.698 54.751H212.304V53.911H215.678V54.639Z" fill="black" fill-opacity="0.7"/>
<path d="M282.188 55.626C282.188 55.8873 282.125 56.1323 281.999 56.361C281.878 56.5897 281.684 56.774 281.418 56.914C281.157 57.054 280.826 57.124 280.424 57.124H279.605V59H278.625V54.114H280.424C280.802 54.114 281.124 54.1793 281.39 54.31C281.656 54.4407 281.855 54.6203 281.985 54.849C282.121 55.0777 282.188 55.3367 282.188 55.626ZM280.382 56.333C280.653 56.333 280.854 56.2723 280.984 56.151C281.115 56.025 281.18 55.85 281.18 55.626C281.18 55.15 280.914 54.912 280.382 54.912H279.605V56.333H280.382ZM286.797 54.114V59H285.817V56.921H283.724V59H282.744V54.114H283.724V56.123H285.817V54.114H286.797ZM292.286 54.639L290.424 59H289.43L291.306 54.751H288.912V53.911H292.286V54.639ZM295.826 56.088V56.914H292.858V56.088H295.826ZM296.688 55.241C296.711 54.7743 296.874 54.415 297.178 54.163C297.486 53.9063 297.889 53.778 298.389 53.778C298.729 53.778 299.021 53.8387 299.264 53.96C299.506 54.0767 299.688 54.2377 299.81 54.443C299.936 54.6437 299.999 54.8723 299.999 55.129C299.999 55.423 299.922 55.6727 299.768 55.878C299.618 56.0787 299.439 56.214 299.229 56.284V56.312C299.499 56.396 299.709 56.5453 299.859 56.76C300.013 56.9747 300.09 57.25 300.09 57.586C300.09 57.866 300.024 58.1157 299.894 58.335C299.768 58.5543 299.579 58.727 299.327 58.853C299.079 58.9743 298.781 59.035 298.431 59.035C297.903 59.035 297.474 58.902 297.143 58.636C296.811 58.37 296.636 57.978 296.618 57.46H297.57C297.579 57.6887 297.656 57.873 297.801 58.013C297.95 58.1483 298.153 58.216 298.41 58.216C298.648 58.216 298.83 58.1507 298.956 58.02C299.086 57.8847 299.152 57.712 299.152 57.502C299.152 57.222 299.063 57.0213 298.886 56.9C298.708 56.7787 298.433 56.718 298.06 56.718H297.857V55.913H298.06C298.722 55.913 299.054 55.6913 299.054 55.248C299.054 55.0473 298.993 54.891 298.872 54.779C298.755 54.667 298.585 54.611 298.361 54.611C298.141 54.611 297.971 54.6717 297.85 54.793C297.733 54.9097 297.665 55.059 297.647 55.241H296.688ZM304.154 54.744H301.886V55.941C301.984 55.8197 302.124 55.7217 302.306 55.647C302.488 55.5677 302.682 55.528 302.887 55.528C303.26 55.528 303.566 55.6097 303.804 55.773C304.042 55.9363 304.215 56.1463 304.322 56.403C304.429 56.655 304.483 56.9257 304.483 57.215C304.483 57.7517 304.329 58.1833 304.021 58.51C303.718 58.8367 303.284 59 302.719 59C302.187 59 301.762 58.867 301.445 58.601C301.128 58.335 300.948 57.9873 300.906 57.558H301.858C301.9 57.7447 301.993 57.894 302.138 58.006C302.287 58.118 302.476 58.174 302.705 58.174C302.98 58.174 303.188 58.0877 303.328 57.915C303.468 57.7423 303.538 57.5137 303.538 57.229C303.538 56.9397 303.466 56.7203 303.321 56.571C303.181 56.417 302.973 56.34 302.698 56.34C302.502 56.34 302.339 56.389 302.208 56.487C302.077 56.585 301.984 56.7157 301.928 56.879H300.99V53.883H304.154V54.744Z" fill="black" fill-opacity="0.7"/>
<path d="M369.174 55.626C369.174 55.8873 369.111 56.1323 368.985 56.361C368.863 56.5897 368.67 56.774 368.404 56.914C368.142 57.054 367.811 57.124 367.41 57.124H366.591V59H365.611V54.114H367.41C367.788 54.114 368.11 54.1793 368.376 54.31C368.642 54.4407 368.84 54.6203 368.971 54.849C369.106 55.0777 369.174 55.3367 369.174 55.626ZM367.368 56.333C367.638 56.333 367.839 56.2723 367.97 56.151C368.1 56.025 368.166 55.85 368.166 55.626C368.166 55.15 367.9 54.912 367.368 54.912H366.591V56.333H367.368ZM373.782 54.114V59H372.802V56.921H370.709V59H369.729V54.114H370.709V56.123H372.802V54.114H373.782ZM376.877 56.298C376.41 56.0553 376.177 55.6797 376.177 55.171C376.177 54.919 376.24 54.6903 376.366 54.485C376.497 54.275 376.69 54.1093 376.947 53.988C377.208 53.862 377.526 53.799 377.899 53.799C378.272 53.799 378.587 53.862 378.844 53.988C379.105 54.1093 379.299 54.275 379.425 54.485C379.556 54.6903 379.621 54.919 379.621 55.171C379.621 55.4277 379.558 55.654 379.432 55.85C379.306 56.0413 379.138 56.1907 378.928 56.298C379.185 56.41 379.385 56.5733 379.53 56.788C379.675 57.0027 379.747 57.257 379.747 57.551C379.747 57.8683 379.665 58.146 379.502 58.384C379.343 58.6173 379.124 58.797 378.844 58.923C378.564 59.049 378.249 59.112 377.899 59.112C377.549 59.112 377.234 59.049 376.954 58.923C376.679 58.797 376.459 58.6173 376.296 58.384C376.137 58.146 376.058 57.8683 376.058 57.551C376.058 57.257 376.13 57.0027 376.275 56.788C376.42 56.5687 376.62 56.4053 376.877 56.298ZM378.669 55.311C378.669 55.0823 378.599 54.905 378.459 54.779C378.324 54.653 378.137 54.59 377.899 54.59C377.666 54.59 377.479 54.653 377.339 54.779C377.204 54.905 377.136 55.0847 377.136 55.318C377.136 55.528 377.206 55.696 377.346 55.822C377.491 55.948 377.675 56.011 377.899 56.011C378.123 56.011 378.307 55.948 378.452 55.822C378.597 55.6913 378.669 55.521 378.669 55.311ZM377.899 56.725C377.633 56.725 377.416 56.7927 377.248 56.928C377.085 57.0633 377.003 57.257 377.003 57.509C377.003 57.7423 377.082 57.9337 377.241 58.083C377.404 58.2277 377.624 58.3 377.899 58.3C378.174 58.3 378.391 58.2253 378.55 58.076C378.709 57.9267 378.788 57.7377 378.788 57.509C378.788 57.2617 378.706 57.0703 378.543 56.935C378.38 56.795 378.165 56.725 377.899 56.725ZM383.475 56.088V56.914H380.507V56.088H383.475ZM384.203 54.8V53.897H385.89V59H384.882V54.8H384.203ZM386.718 56.382C386.718 55.5747 386.863 54.9423 387.152 54.485C387.446 54.0277 387.931 53.799 388.608 53.799C389.285 53.799 389.768 54.0277 390.057 54.485C390.351 54.9423 390.498 55.5747 390.498 56.382C390.498 57.194 390.351 57.831 390.057 58.293C389.768 58.755 389.285 58.986 388.608 58.986C387.931 58.986 387.446 58.755 387.152 58.293C386.863 57.831 386.718 57.194 386.718 56.382ZM389.532 56.382C389.532 56.0367 389.509 55.7473 389.462 55.514C389.42 55.276 389.331 55.0823 389.196 54.933C389.065 54.7837 388.869 54.709 388.608 54.709C388.347 54.709 388.148 54.7837 388.013 54.933C387.882 55.0823 387.794 55.276 387.747 55.514C387.705 55.7473 387.684 56.0367 387.684 56.382C387.684 56.7367 387.705 57.0353 387.747 57.278C387.789 57.516 387.878 57.7097 388.013 57.859C388.148 58.0037 388.347 58.076 388.608 58.076C388.869 58.076 389.068 58.0037 389.203 57.859C389.338 57.7097 389.427 57.516 389.469 57.278C389.511 57.0353 389.532 56.7367 389.532 56.382Z" fill="black" fill-opacity="0.7"/>
<path fill-rule="evenodd" clip-rule="evenodd" d="M138.814 93C137.338 104.839 127.239 114 115 114C102.761 114 92.662 104.839 91.1857 93H75V87H91.1857C92.662 75.1611 102.761 66 115 66C127.239 66 137.338 75.1611 138.814 87H179.186C180.662 75.1611 190.761 66 203 66C215.239 66 225.338 75.1611 226.814 87H267.186C268.662 75.1611 278.761 66 291 66C303.239 66 313.338 75.1611 314.814 87H355.186C356.662 75.1611 366.761 66 379 66C391.239 66 401.338 75.1611 402.814 87H419V93H402.814C401.338 104.839 391.239 114 379 114C366.761 114 356.662 104.839 355.186 93H314.814C313.338 104.839 303.239 114 291 114C278.761 114 268.662 104.839 267.186 93H226.814C225.338 104.839 215.239 114 203 114C190.761 114 180.662 104.839 179.186 93H138.814Z" fill="url(#paint1_linear_814_5)"/>
<circle cx="372" cy="13" r="10" fill="url(#paint2_linear_814_5)" stroke="white" stroke-width="2"/>
<path d="M376.591 15.086H373.459V18.29H370.543V15.086H367.411V12.332H370.543V9.11H373.459V12.332H376.591V15.086Z" fill="white"/>
<path fill-rule="evenodd" clip-rule="evenodd" d="M292.073 79.0581C292.123 79.0861 292.23 79.2395 292.31 79.3989C292.542 79.8605 292.86 80.35 294.23 82.348C296.002 84.9308 296.708 86.032 297.469 87.3997C298.218 88.7443 298.73 90.0165 298.934 91.0342C299.023 91.4841 299.022 92.4689 298.931 93.0237C298.508 95.5926 296.739 97.7318 294.323 98.597C293.478 98.8994 292.879 99 291.923 99C290.967 99 290.368 98.8994 289.523 98.597C287.116 97.7349 285.309 95.5545 284.923 93.0433C284.742 91.868 284.828 91.0435 285.257 89.8366C285.888 88.0618 286.986 86.1938 289.749 82.1944C290.845 80.6077 291.255 79.9703 291.502 79.4742C291.738 78.9988 291.837 78.9268 292.073 79.0581Z" fill="white"/>
<path fill-rule="evenodd" clip-rule="evenodd" d="M201.847 80.0416C201.596 80.107 201.337 80.2387 201.129 80.4071L200.967 80.5389L199.385 80.551L197.804 80.563L197.573 80.676C197.148 80.8847 196.925 81.2856 196.959 81.7805C196.987 82.2054 197.211 82.5309 197.608 82.7266L197.804 82.8226L199.42 82.8346L201.037 82.8465L201.258 83.0013C201.379 83.0865 201.539 83.1761 201.613 83.2006L201.748 83.245V83.6162V83.9873L200.972 83.9996L200.195 84.0119L200.08 84.1413C199.985 84.2471 199.964 84.3064 199.964 84.4653C199.964 84.6277 199.983 84.6791 200.08 84.7762C200.15 84.8458 200.258 84.9027 200.348 84.9176C200.431 84.9313 201.173 84.9428 201.996 84.943L203.492 84.9435V85.2209V85.4984H201.57H199.648L199.519 85.614L199.389 85.7296L199.376 86.2285L199.363 86.7273H198.163H196.963L196.926 86.5992C196.878 86.433 196.67 86.2913 196.473 86.2913C196.282 86.2913 196.096 86.4412 196.041 86.6407C195.98 86.86 195.99 91.5019 196.052 91.6812C196.105 91.8364 196.317 91.9997 196.466 91.9997C196.619 91.9997 196.831 91.8804 196.894 91.7585C196.93 91.6879 196.951 91.5296 196.951 91.3278V91.0087H198.344H199.737L200.043 91.3004C201.307 92.5081 203.221 92.489 204.528 91.2558L204.798 91.0015L204.999 91.0446C205.267 91.1021 205.484 91.2175 205.701 91.417C205.867 91.57 206.109 91.9283 206.107 92.0196C206.107 92.0414 206.049 92.086 205.979 92.1187C205.907 92.152 205.816 92.2427 205.772 92.325C205.699 92.4614 205.698 92.4839 205.752 92.6386C205.863 92.953 205.917 92.9692 206.882 92.9837L207.729 92.9964L207.405 93.3744C206.217 94.7574 205.406 96.1782 205.328 97.0154C205.298 97.3417 205.373 97.8086 205.514 98.1756C205.808 98.9373 206.453 99.5682 207.206 99.8301C207.978 100.098 208.738 100.049 209.478 99.6816C209.749 99.5474 209.886 99.4441 210.173 99.1564C210.567 98.7622 210.751 98.4603 210.911 97.946C211.044 97.5166 211.043 96.894 210.907 96.4793C210.649 95.6882 209.901 94.4928 208.956 93.3598C208.807 93.1813 208.685 93.0252 208.685 93.013C208.685 93.0008 208.98 92.9908 209.341 92.9908C210.082 92.9908 210.219 92.9576 210.352 92.7454C210.497 92.514 210.409 92.2316 210.151 92.098C210.059 92.0506 210.045 92.0102 210.001 91.6522C209.872 90.6257 209.458 89.5911 208.858 88.8011C208.577 88.4324 207.978 87.8608 207.627 87.6275C206.988 87.2027 206.312 86.9356 205.566 86.8134C205.095 86.7363 205.119 86.7679 205.118 86.2199C205.117 85.6825 204.987 85.4984 204.608 85.4984H204.451L204.437 84.9066C204.425 84.3801 204.415 84.3025 204.341 84.203C204.197 84.0101 204.121 83.9933 203.383 83.9926L202.699 83.992V83.6202V83.2485L202.828 83.1968C202.899 83.1684 203.055 83.0815 203.175 83.0037L203.393 82.8622L204.999 82.8424C206.569 82.823 206.609 82.8206 206.802 82.7315C207.039 82.6228 207.272 82.4067 207.39 82.1883C207.514 81.9576 207.512 81.4253 207.386 81.1884C207.266 80.9616 207.045 80.7487 206.826 80.6472C206.651 80.5666 206.577 80.5625 205.065 80.551L203.487 80.539L203.26 80.3625C202.866 80.0569 202.29 79.9261 201.847 80.0416ZM202.54 81.0185C202.787 81.1446 202.912 81.3407 202.927 81.6282C202.938 81.8255 202.923 81.9008 202.849 82.0286C202.632 82.4028 202.175 82.5128 201.823 82.2756C201.439 82.0171 201.376 81.5371 201.68 81.191C201.905 80.9347 202.243 80.8669 202.54 81.0185ZM207.813 97.4109C208.108 97.5351 208.253 97.5351 208.521 97.4105C208.819 97.2717 208.969 97.2803 209.151 97.4466C209.274 97.5598 209.298 97.6075 209.298 97.7422C209.298 98.165 208.785 98.446 208.071 98.4147C207.757 98.401 207.669 98.3805 207.442 98.2688C207.158 98.1292 207.06 98.0051 207.06 97.7875C207.06 97.5389 207.26 97.3174 207.487 97.3133C207.537 97.3125 207.684 97.3564 207.813 97.4109Z" fill="white"/>
<path fill-rule="evenodd" clip-rule="evenodd" d="M107.729 81.0734C107.458 81.1677 107.24 81.3654 107.106 81.6371C107.016 81.8196 107.008 81.9004 106.995 82.8247L106.981 83.8164L107.091 83.9781C107.2 84.139 107.201 84.1422 107.156 84.6249C107.095 85.2829 106.951 85.9387 106.643 86.9609C106.367 87.8784 106.216 88.5306 106.098 89.3193C106.033 89.7517 106.022 90.3567 106.008 94.4064C105.989 99.4783 105.981 99.2925 106.259 99.8434C106.53 100.381 107.151 100.841 107.759 100.956C108.083 101.017 112.413 101.014 112.746 100.952C113.545 100.805 114.218 100.175 114.424 99.3806C114.482 99.1609 114.491 98.5321 114.491 94.6593C114.491 91.782 114.474 90.0238 114.444 89.7205C114.352 88.7944 114.19 88.0658 113.735 86.534C113.529 85.8402 113.377 85.0712 113.343 84.5438C113.316 84.1403 113.321 84.1005 113.409 83.9817C113.501 83.8573 113.503 83.8267 113.49 82.8218C113.479 81.9325 113.467 81.7683 113.4 81.6343C113.298 81.43 113.093 81.2233 112.876 81.1073C112.703 81.0149 112.671 81.0136 110.33 81.0036C108.117 80.9942 107.943 80.9989 107.729 81.0734ZM112.48 84.3231C112.491 84.4001 112.52 84.6718 112.545 84.9267C112.601 85.4968 112.757 86.2022 113.009 87.027C113.257 87.8409 113.401 88.4088 113.502 88.9692C113.589 89.4514 113.707 90.9318 113.662 90.9766C113.647 90.9913 113.512 90.945 113.362 90.8737C112.77 90.5924 112.266 90.6036 111.606 90.9126C111.111 91.1447 110.903 91.1439 110.391 90.908C109.692 90.5862 109.285 90.5862 108.587 90.908C108.08 91.1413 107.884 91.1425 107.38 90.9149C107.176 90.823 106.972 90.7352 106.927 90.7197C106.85 90.6933 106.847 90.6569 106.872 90.143C106.918 89.2158 107.073 88.4117 107.44 87.2013C107.782 86.0709 107.941 85.323 108.005 84.5387L108.034 84.1829H110.247H112.46L112.48 84.3231ZM123.546 85.6533C123.131 85.6977 122.665 85.7636 122.511 85.7999C121.887 85.9467 121.23 86.3679 120.872 86.8497C120.588 87.2313 120.454 87.5368 120.229 88.3131L120.021 89.0338L118.104 89.0554L116.187 89.077L116.008 89.1959C115.767 89.3555 115.603 89.6112 115.58 89.865C115.564 90.0488 116.267 99.2423 116.327 99.6314C116.4 100.101 116.886 100.683 117.367 100.877C117.616 100.978 117.619 100.978 119.665 100.978H121.713L121.995 100.844C122.462 100.623 122.77 100.287 122.92 99.8362C123.02 99.5336 123.766 90.035 123.71 89.772C123.66 89.5355 123.417 89.2437 123.181 89.1367C123.027 89.0667 122.883 89.0572 121.961 89.0564C121.14 89.0556 120.915 89.0435 120.915 89.0001C120.915 88.8742 121.231 87.8613 121.333 87.6603C121.499 87.3327 121.873 86.9657 122.215 86.7942C122.575 86.6144 122.745 86.5792 123.766 86.4738C124.208 86.4282 124.611 86.3689 124.661 86.342C124.794 86.2706 124.893 86.0546 124.86 85.9057C124.822 85.7323 124.608 85.5615 124.437 85.5678C124.362 85.5706 123.961 85.6091 123.546 85.6533ZM119.773 89.9286C119.762 89.9582 119.588 90.5743 119.384 91.2976C119.181 92.0209 119.005 92.6467 118.992 92.6882C118.975 92.7448 118.923 92.7637 118.784 92.7637C118.461 92.7637 118.154 92.8446 117.807 93.0217C117.367 93.2461 117.123 93.3007 116.853 93.2358C116.739 93.2086 116.646 93.1833 116.646 93.1798C116.646 93.1762 116.588 92.4481 116.518 91.5617C116.447 90.6753 116.4 89.9331 116.413 89.9124C116.425 89.8916 117.191 89.8747 118.114 89.8747C119.437 89.8747 119.787 89.8861 119.773 89.9286ZM122.885 89.9441C122.912 90.0133 122.71 92.7947 122.676 92.8288C122.666 92.8386 122.526 92.8248 122.365 92.7981C121.933 92.7267 121.556 92.7968 121.07 93.0388C120.587 93.279 120.431 93.3095 120.132 93.2224C119.704 93.098 119.698 93.2476 120.204 91.4701C120.45 90.6045 120.653 89.8914 120.654 89.8854C120.656 89.8795 121.152 89.8747 121.757 89.8747C122.73 89.8747 122.861 89.8828 122.885 89.9441ZM110.568 93.4324C110.809 93.5576 110.855 93.8344 110.671 94.0539L110.559 94.1866H109.589H108.62L108.494 94.0605C108.3 93.8671 108.346 93.5618 108.588 93.4275C108.746 93.3397 110.396 93.3439 110.568 93.4324ZM112.017 95.4447C112.074 95.5023 112.133 95.6185 112.147 95.7029C112.167 95.8318 112.151 95.8796 112.042 96.0014C111.92 96.1377 111.893 96.1472 111.595 96.1599C111.217 96.176 111.093 96.1238 110.985 95.9035C110.914 95.7592 110.913 95.7321 110.973 95.5899C111.063 95.3746 111.24 95.301 111.617 95.3228C111.858 95.3368 111.931 95.3589 112.017 95.4447ZM119.144 95.7643C119.329 95.9195 119.331 96.1651 119.151 96.3459C119.031 96.4657 119.006 96.4719 118.652 96.4719C118.297 96.4719 118.272 96.4657 118.152 96.3459C117.972 96.1651 117.974 95.9195 118.159 95.7643C118.278 95.6637 118.327 95.6526 118.652 95.6526C118.976 95.6526 119.025 95.6637 119.144 95.7643ZM109.283 96.4307C109.475 96.4842 109.575 96.6127 109.575 96.8077C109.575 97.1863 109.427 97.248 108.519 97.248C107.608 97.248 107.462 97.1867 107.462 96.804C107.462 96.6391 107.619 96.4467 107.778 96.4157C107.977 96.3769 109.13 96.3884 109.283 96.4307ZM121.006 96.688C121.201 96.7422 121.3 96.8504 121.331 97.0428C121.352 97.1682 121.334 97.2173 121.225 97.3392C121.095 97.485 121.094 97.4852 120.7 97.4852C120.305 97.4852 120.304 97.485 120.174 97.3392C120.065 97.2173 120.048 97.1682 120.068 97.0428C120.081 96.9601 120.126 96.8557 120.166 96.8109C120.302 96.6607 120.699 96.6026 121.006 96.688ZM119.579 98.2961C119.685 98.3325 119.753 98.395 119.808 98.5093C119.885 98.6661 119.885 98.6759 119.808 98.8323C119.765 98.9211 119.681 99.0178 119.622 99.0473C119.487 99.1142 118.958 99.1187 118.832 99.054C118.469 98.8686 118.516 98.4045 118.91 98.2764C119.052 98.2303 119.417 98.2411 119.579 98.2961ZM111.346 98.5814C111.439 98.6747 111.472 98.7484 111.472 98.865C111.472 98.9816 111.439 99.0553 111.346 99.1486L111.22 99.2746H110.266C109.315 99.2746 109.312 99.2743 109.208 99.1706C109.072 99.0346 109.035 98.8731 109.102 98.7115C109.198 98.4779 109.288 98.459 110.3 98.4571L111.22 98.4554L111.346 98.5814Z" fill="white"/>
<defs>
<linearGradient id="paint0_linear_814_5" x1="97" y1="3" x2="317.378" y2="189.156" gradientUnits="userSpaceOnUse">
<stop stop-color="#FF6651"/>
<stop offset="1" stop-color="#F8377B"/>
</linearGradient>
<linearGradient id="paint1_linear_814_5" x1="81" y1="94.5001" x2="419" y2="94.5001" gradientUnits="userSpaceOnUse">
<stop stop-color="#C5494F"/>
<stop offset="0.356826" stop-color="#BBC04C"/>
<stop offset="0.622033" stop-color="#4CC077"/>
<stop offset="1" stop-color="#4FA5BA"/>
</linearGradient>
<linearGradient id="paint2_linear_814_5" x1="361" y1="2" x2="387.143" y2="9.43612" gradientUnits="userSpaceOnUse">
<stop stop-color="#FF6651"/>
<stop offset="1" stop-color="#F8377B"/>
</linearGradient>
</defs>
</svg>
